<svg xmlns="http://www.w3.org/2000/svg" height="800" width="1200" viewBox="-2.138997 -1.5221475 18.537974 9.132885"><defs><clipPath clipPathUnits="userSpaceOnUse" id="a"><path d="M206.39 124.001h40.423v17.259H206.39z"/></clipPath></defs><g clip-path="url(#a)" transform="matrix(.35278 0 0 -.35278 -72.8098 49.83339)" fill-rule="evenodd"><path d="M246.812 132.42c0-4.776-10.545-8.419-20.327-8.419-8.181 0-20.095 2.601-20.095 8.556 0 4.447 9.217 8.703 19.999 8.703 8.795 0 20.423-2.46 20.423-8.84" fill="#ed174f"/><path d="M246.1043 132.438c0-4.085-9.974-7.728-19.583-7.728-7.986 0-19.375 2.493-19.375 7.852 0 4.002 9.586 8.032 19.29 8.032 7.915 0 19.668-2.413 19.668-8.156" fill="#fff"/><path d="M245.6328 132.4671c0-3.676-9.646-7.282-19.1-7.282-7.853 0-18.773 2.563-18.773 7.385 0 3.603 8.775 7.505 18.772 7.505 7.99 0 19.101-2.439 19.101-7.608" fill="#ed174f"/><path d="M233.855 134.9989c.144-.154.162-.32.121-.514-.102-.35-.321-.672-.712-.713-.236.011-.408.087-.439.333-.031.402.061.638.393.894.206.134.451.238.637 0m-16.5615 1.9906c.304-.358.699-1.481.422-2.478-.278-.893-1.063-1.875-1.985-2.087-.853-.154-1.553.38-2.018 1.052-.505-1.389-.522-3.017-.057-4.375-.249-.233-.527-.367-.887-.531-.164.042-.221.066-.265.199-.621 1.857-.456 4.551.687 6.796.688 1.341 1.701 2.044 2.76 2.028.382-.066.87-.049 1.343-.604m-.802-.367c.422-.411.523-1.167.38-1.712-.196-.678-.804-1.58-1.535-1.723-.432-.022-.866.31-1.092.67-.299.463-.14 1.318.158 1.739.421.668 1.266 1.519 2.089 1.026" fill="#fff"/><path d="M230.2857 136.0512c.058-1.434-1.296-3.858-1.578-3.946-.333.348.145 3.186 1.219 4.093.155.081.314.017.359-.147m6.529-.459c-.047-.743-.45-1.43-.789-2.139-.196-.36-.522-.944-.82-1.244-.133.238-.112.79-.09 1.078.164.885.498 1.852 1.165 2.531.32.38.594.046.534-.226m-13.34-2.97c0-.572-.566-1.404-.979-1.64-.261.435-.09 1.221.136 1.622.133.215.384.31.487.35.164.042.356-.116.356-.332m-5.08-.19c-.05-.565-.383-1.116-1.042-1.63-.334.354.156 1.564.678 1.904.232.115.348-.05.364-.274m11.383-1.848c-.119-.167-.409-.34-.513-.246-.788.759-.161 1.132.175 1.737.102.176.822 1.362.946 1.865.402.936.794 2.23.298 2.885-.621.545-1.433-.217-1.862-.931-.604-1.006-1.299-3.014-.846-4.812-.237-.35-.616-.745-1.037-.755-.134.041-.311.119-.332.243.072.699.41 1.6.564 2.268.052.206-.033.285-.093.48-.073.206-.46.119-.665.119-.533-.135-.702-.259-1.123.029-.154.051-.173-.178-.276-.31-.354-1.313-.614-2.266-1.307-2.829-.215-.103-.509-.285-.904-.033.603.522 1.314 1.52 1.329 2.325-.03.421-.296.844-.697.977-1.244.174-2.426-1.918-1.667-3.137-.144-.194-.291-.248-.688-.248-.34.116-.377.443-.439.576-.05 1.077.987 3.36.987 3.36 1.099.668 2.494.893 3.819.564.148.347.21.541.342.856 0 .102-1.701.237-2.687-.068-.308-.083-.871-.283-1.201-.432 0 0 .298.92.431 1.284-.481-.049-.721-.082-1.003-.182l-.439-1.326-.103-.399c-.653-.296-1.046-.017-1.488.035-.12-.224-.179-.384-.199-.671.52-.342 1.099-.104 1.325-.166-.37-1.232-.95-2.942-1.783-3.304-.226-.103-.643-.237-.911-.094.657.646 1.787 1.774 1.253 2.743-.711.798-1.342.086-1.631-.079-.716-.818-1.046-1.417-.79-2.527-.208-.095-.643-.203-.89-.311.013-.267.028-.406.129-.613.452.062.748.251 1.217.455l.168-.133c.668-.401 1.331-.422 1.948.03.282.131.558.34.79.616.41-.587.783-1.03 1.86-.732.566.529.522-.217 1.416-.12 1.604.033 1.929 1.8 2.33 3.075.144.042.541.123.664-.001-.103-.904-.855-1.972-.176-2.826.411-.348 1.177-.163 1.618.084.296.165.426.433.653.469.36-.473.749-.907 1.366-.743.984.411 1.36 1.334 1.464 2.372 0 0-.038.29.086.32.239.057.819.072 1.072.028-.224-.478-.456-1.213-.302-1.84.092-.37.327-.657.708-.759.89-.276 1.84.643 1.961.803.334-.421.74-1.05 1.485-1.022.828.033 1.246.262 1.963.818.37-.4.609-.694 1.123-.745.411 0 .872-.038 1.191.177.041.236.068.38.091.652-1.001-.47-1.373-.06-1.631.28-.267.39.241 1.393.343 1.785.288.709.375 1.024.667 1.607.966.318 1.923.995 3.081.554.288.237.413.525.424.886-1.122.421-2.335-.401-3.201-.579.03.35.237.793.353 1.171-.242.015-.631-.045-.946-.048-.184-.452-.286-.93-.545-1.455-.443-.062-.95.141-1.184.213-.121-.289-.179-.434-.295-.701.134-.196.458-.167.674-.218.164-.083.485.024.531-.127-.452-1.203-.818-2.699-1.979-3.48-.226-.113-.564-.2-.79-.086-.339.214-.615.681-.672 1.078.76.878 1.651 2.357 2.062 3.58.103.689.337 1.391-.454 1.832-.452.216-.819-.13-1.169-.407-1.017-1.093-1.74-3.077-1.38-5.051-.246-.339-.675-.74-1.045-.874-.247-.061-.533.027-.688.232-.276.453.052 1.147.217 1.568.113.308.272.377.408.697-.112.103-.224.222-.346.304-.154.046-.653-.271-.951-.302-.563-.046-.862.144-1.313.348-.205.144-.255-.031-.392-.107.076-.456.028-1.877-.499-2.551" fill="#fff"/></g></svg>